<?xml version="1.0" encoding="utf-8" standalone="no"?>
<!DOCTYPE svg PUBLIC "-//W3C//DTD SVG 1.1//EN"
  "http://www.w3.org/Graphics/SVG/1.1/DTD/svg11.dtd">
<!-- Created with matplotlib (https://matplotlib.org/) -->
<svg height="416.16pt" version="1.1" viewBox="0 0 609.12 416.16" width="609.12pt" xmlns="http://www.w3.org/2000/svg" xmlns:xlink="http://www.w3.org/1999/xlink">
 <defs>
  <style type="text/css">
*{stroke-linecap:butt;stroke-linejoin:round;}
  </style>
 </defs>
 <g id="figure_1">
  <g id="patch_1">
   <path d="M 0 416.16 
L 609.12 416.16 
L 609.12 0 
L 0 0 
z
" style="fill:#ffffff;"/>
  </g>
  <g id="axes_1">
   <g id="line2d_1">
    <path clip-path="url(#pb6ad15070f)" d="M 106.863171 234.473005 
L 233.688809 234.473005 
" style="fill:none;stroke:#808080;stroke-linecap:square;stroke-opacity:0.5;stroke-width:1.5;"/>
   </g>
   <g id="line2d_2">
    <path clip-path="url(#pb6ad15070f)" d="M 233.688809 234.473005 
L 360.514448 234.473005 
" style="fill:none;stroke:#808080;stroke-linecap:square;stroke-opacity:0.5;stroke-width:1.5;"/>
   </g>
   <g id="line2d_3">
    <path clip-path="url(#pb6ad15070f)" d="M 360.514448 234.473005 
L 487.340086 234.473005 
" style="fill:none;stroke:#808080;stroke-linecap:square;stroke-opacity:0.5;stroke-width:1.5;"/>
   </g>
   <g id="line2d_4">
    <path clip-path="url(#pb6ad15070f)" d="M 487.340086 234.473005 
L 360.514448 92.65 
" style="fill:none;stroke:#808080;stroke-linecap:square;stroke-opacity:0.5;stroke-width:1.5;"/>
   </g>
   <g id="line2d_5">
    <path clip-path="url(#pb6ad15070f)" d="M 360.514448 92.65 
L 233.688809 92.65 
" style="fill:none;stroke:#808080;stroke-linecap:square;stroke-opacity:0.5;stroke-width:1.5;"/>
   </g>
   <g id="line2d_6">
    <path clip-path="url(#pb6ad15070f)" d="M 233.688809 92.65 
L 106.863171 234.473005 
" style="fill:none;stroke:#808080;stroke-linecap:square;stroke-opacity:0.5;stroke-width:1.5;"/>
   </g>
   <g id="line2d_7">
    <path clip-path="url(#pb6ad15070f)" d="M 233.688809 92.65 
L 233.688809 234.473005 
" style="fill:none;stroke:#808080;stroke-linecap:square;stroke-opacity:0.5;stroke-width:1.5;"/>
   </g>
   <g id="line2d_8">
    <path clip-path="url(#pb6ad15070f)" d="M 360.514448 92.65 
L 360.514448 234.473005 
" style="fill:none;stroke:#808080;stroke-linecap:square;stroke-opacity:0.5;stroke-width:1.5;"/>
   </g>
   <g id="line2d_9">
    <path clip-path="url(#pb6ad15070f)" d="M 233.688809 234.473005 
L 360.514448 92.65 
" style="fill:none;stroke:#808080;stroke-linecap:square;stroke-opacity:0.5;stroke-width:1.5;"/>
   </g>
   <g id="line2d_10">
    <path clip-path="url(#pb6ad15070f)" d="M 106.863171 234.473005 
" style="fill:none;stroke:#000000;stroke-linecap:square;stroke-width:1.5;"/>
    <defs>
     <path d="M -10.869565 21.73913 
L 0 5.434783 
L 10.869565 21.73913 
z
M -13.043478 21.73913 
L 13.043478 21.73913 
M -13.043478 25 
L -10.869565 21.73913 
M -10.869565 25 
L -8.695652 21.73913 
M -8.695652 25 
L -6.521739 21.73913 
M -6.521739 25 
L -4.347826 21.73913 
M -4.347826 25 
L -2.173913 21.73913 
M -2.173913 25 
L 0 21.73913 
M 0 25 
L 2.173913 21.73913 
M 2.173913 25 
L 4.347826 21.73913 
M 4.347826 25 
L 6.521739 21.73913 
M 6.521739 25 
L 8.695652 21.73913 
M 8.695652 25 
L 10.869565 21.73913 
" id="meae20f784b" style="stroke:#000000;"/>
    </defs>
    <g clip-path="url(#pb6ad15070f)">
     <use style="fill:#b0c4de;stroke:#000000;" x="106.863171" xlink:href="#meae20f784b" y="234.473005"/>
    </g>
   </g>
   <g id="line2d_11">
    <path clip-path="url(#pb6ad15070f)" d="M 487.340086 234.473005 
" style="fill:none;stroke:#000000;stroke-linecap:square;stroke-width:1.5;"/>
    <defs>
     <path d="M 0 24.553571 
C 2.604673 24.553571 5.103017 23.518724 6.944799 21.676942 
C 8.786581 19.835159 9.821429 17.336816 9.821429 14.732143 
C 9.821429 12.12747 8.786581 9.629126 6.944799 7.787344 
C 5.103017 5.945562 2.604673 4.910714 0 4.910714 
C -2.604673 4.910714 -5.103017 5.945562 -6.944799 7.787344 
C -8.786581 9.629126 -9.821429 12.12747 -9.821429 14.732143 
C -9.821429 17.336816 -8.786581 19.835159 -6.944799 21.676942 
C -5.103017 23.518724 -2.604673 24.553571 0 24.553571 
z
M -9.821429 24.553571 
L 9.821429 24.553571 
M -9.821429 27.5 
L -7.857143 24.553571 
M -7.857143 27.5 
L -5.892857 24.553571 
M -5.892857 27.5 
L -3.928571 24.553571 
M -3.928571 27.5 
L -1.964286 24.553571 
M -1.964286 27.5 
L 0 24.553571 
M 0 27.5 
L 1.964286 24.553571 
M 1.964286 27.5 
L 3.928571 24.553571 
M 3.928571 27.5 
L 5.892857 24.553571 
M 5.892857 27.5 
L 7.857143 24.553571 
" id="m851bbf6503" style="stroke:#000000;"/>
    </defs>
    <g clip-path="url(#pb6ad15070f)">
     <use style="fill:#b0c4de;stroke:#000000;" x="487.340086" xlink:href="#m851bbf6503" y="234.473005"/>
    </g>
   </g>
   <g id="PathCollection_1">
    <defs>
     <path d="M 0 7.071068 
C 1.875269 7.071068 3.673985 6.326016 5 5 
C 6.326016 3.673985 7.071068 1.875269 7.071068 0 
C 7.071068 -1.875269 6.326016 -3.673985 5 -5 
C 3.673985 -6.326016 1.875269 -7.071068 0 -7.071068 
C -1.875269 -7.071068 -3.673985 -6.326016 -5 -5 
C -6.326016 -3.673985 -7.071068 -1.875269 -7.071068 0 
C -7.071068 1.875269 -6.326016 3.673985 -5 5 
C -3.673985 6.326016 -1.875269 7.071068 0 7.071068 
z
" id="m7067313785" style="stroke:#ffff00;"/>
    </defs>
    <g clip-path="url(#pb6ad15070f)">
     <use style="fill:#f5f5f5;stroke:#ffff00;" x="106.863171" xlink:href="#m7067313785" y="234.473005"/>
     <use style="fill:#f5f5f5;stroke:#ffff00;" x="233.688809" xlink:href="#m7067313785" y="234.473005"/>
     <use style="fill:#f5f5f5;stroke:#ffff00;" x="360.514448" xlink:href="#m7067313785" y="234.473005"/>
     <use style="fill:#f5f5f5;stroke:#ffff00;" x="487.340086" xlink:href="#m7067313785" y="234.473005"/>
     <use style="fill:#f5f5f5;stroke:#ffff00;" x="233.688809" xlink:href="#m7067313785" y="92.65"/>
     <use style="fill:#f5f5f5;stroke:#ffff00;" x="360.514448" xlink:href="#m7067313785" y="92.65"/>
    </g>
   </g>
   <g id="text_1">
    <!-- 1 -->
    <defs>
     <path d="M 12.40625 8.296875 
L 28.515625 8.296875 
L 28.515625 63.921875 
L 10.984375 60.40625 
L 10.984375 69.390625 
L 28.421875 72.90625 
L 38.28125 72.90625 
L 38.28125 8.296875 
L 54.390625 8.296875 
L 54.390625 0 
L 12.40625 0 
z
" id="DejaVuSans-49"/>
    </defs>
    <g style="fill:#bfbf00;" transform="translate(104.318171 236.680505)scale(0.08 -0.08)">
     <use xlink:href="#DejaVuSans-49"/>
    </g>
   </g>
   <g id="text_2">
    <!-- 2 -->
    <defs>
     <path d="M 19.1875 8.296875 
L 53.609375 8.296875 
L 53.609375 0 
L 7.328125 0 
L 7.328125 8.296875 
Q 12.9375 14.109375 22.625 23.890625 
Q 32.328125 33.6875 34.8125 36.53125 
Q 39.546875 41.84375 41.421875 45.53125 
Q 43.3125 49.21875 43.3125 52.78125 
Q 43.3125 58.59375 39.234375 62.25 
Q 35.15625 65.921875 28.609375 65.921875 
Q 23.96875 65.921875 18.8125 64.3125 
Q 13.671875 62.703125 7.8125 59.421875 
L 7.8125 69.390625 
Q 13.765625 71.78125 18.9375 73 
Q 24.125 74.21875 28.421875 74.21875 
Q 39.75 74.21875 46.484375 68.546875 
Q 53.21875 62.890625 53.21875 53.421875 
Q 53.21875 48.921875 51.53125 44.890625 
Q 49.859375 40.875 45.40625 35.40625 
Q 44.1875 33.984375 37.640625 27.21875 
Q 31.109375 20.453125 19.1875 8.296875 
z
" id="DejaVuSans-50"/>
    </defs>
    <g style="fill:#bfbf00;" transform="translate(231.143809 236.680505)scale(0.08 -0.08)">
     <use xlink:href="#DejaVuSans-50"/>
    </g>
   </g>
   <g id="text_3">
    <!-- 3 -->
    <defs>
     <path d="M 40.578125 39.3125 
Q 47.65625 37.796875 51.625 33 
Q 55.609375 28.21875 55.609375 21.1875 
Q 55.609375 10.40625 48.1875 4.484375 
Q 40.765625 -1.421875 27.09375 -1.421875 
Q 22.515625 -1.421875 17.65625 -0.515625 
Q 12.796875 0.390625 7.625 2.203125 
L 7.625 11.71875 
Q 11.71875 9.328125 16.59375 8.109375 
Q 21.484375 6.890625 26.8125 6.890625 
Q 36.078125 6.890625 40.9375 10.546875 
Q 45.796875 14.203125 45.796875 21.1875 
Q 45.796875 27.640625 41.28125 31.265625 
Q 36.765625 34.90625 28.71875 34.90625 
L 20.21875 34.90625 
L 20.21875 43.015625 
L 29.109375 43.015625 
Q 36.375 43.015625 40.234375 45.921875 
Q 44.09375 48.828125 44.09375 54.296875 
Q 44.09375 59.90625 40.109375 62.90625 
Q 36.140625 65.921875 28.71875 65.921875 
Q 24.65625 65.921875 20.015625 65.03125 
Q 15.375 64.15625 9.8125 62.3125 
L 9.8125 71.09375 
Q 15.4375 72.65625 20.34375 73.4375 
Q 25.25 74.21875 29.59375 74.21875 
Q 40.828125 74.21875 47.359375 69.109375 
Q 53.90625 64.015625 53.90625 55.328125 
Q 53.90625 49.265625 50.4375 45.09375 
Q 46.96875 40.921875 40.578125 39.3125 
z
" id="DejaVuSans-51"/>
    </defs>
    <g style="fill:#bfbf00;" transform="translate(357.969448 236.680505)scale(0.08 -0.08)">
     <use xlink:href="#DejaVuSans-51"/>
    </g>
   </g>
   <g id="text_4">
    <!-- 4 -->
    <defs>
     <path d="M 37.796875 64.3125 
L 12.890625 25.390625 
L 37.796875 25.390625 
z
M 35.203125 72.90625 
L 47.609375 72.90625 
L 47.609375 25.390625 
L 58.015625 25.390625 
L 58.015625 17.1875 
L 47.609375 17.1875 
L 47.609375 0 
L 37.796875 0 
L 37.796875 17.1875 
L 4.890625 17.1875 
L 4.890625 26.703125 
z
" id="DejaVuSans-52"/>
    </defs>
    <g style="fill:#bfbf00;" transform="translate(484.795086 236.680505)scale(0.08 -0.08)">
     <use xlink:href="#DejaVuSans-52"/>
    </g>
   </g>
   <g id="text_5">
    <!-- 5 -->
    <defs>
     <path d="M 10.796875 72.90625 
L 49.515625 72.90625 
L 49.515625 64.59375 
L 19.828125 64.59375 
L 19.828125 46.734375 
Q 21.96875 47.46875 24.109375 47.828125 
Q 26.265625 48.1875 28.421875 48.1875 
Q 40.625 48.1875 47.75 41.5 
Q 54.890625 34.8125 54.890625 23.390625 
Q 54.890625 11.625 47.5625 5.09375 
Q 40.234375 -1.421875 26.90625 -1.421875 
Q 22.3125 -1.421875 17.546875 -0.640625 
Q 12.796875 0.140625 7.71875 1.703125 
L 7.71875 11.625 
Q 12.109375 9.234375 16.796875 8.0625 
Q 21.484375 6.890625 26.703125 6.890625 
Q 35.15625 6.890625 40.078125 11.328125 
Q 45.015625 15.765625 45.015625 23.390625 
Q 45.015625 31 40.078125 35.4375 
Q 35.15625 39.890625 26.703125 39.890625 
Q 22.75 39.890625 18.8125 39.015625 
Q 14.890625 38.140625 10.796875 36.28125 
z
" id="DejaVuSans-53"/>
    </defs>
    <g style="fill:#bfbf00;" transform="translate(231.143809 94.8575)scale(0.08 -0.08)">
     <use xlink:href="#DejaVuSans-53"/>
    </g>
   </g>
   <g id="text_6">
    <!-- 6 -->
    <defs>
     <path d="M 33.015625 40.375 
Q 26.375 40.375 22.484375 35.828125 
Q 18.609375 31.296875 18.609375 23.390625 
Q 18.609375 15.53125 22.484375 10.953125 
Q 26.375 6.390625 33.015625 6.390625 
Q 39.65625 6.390625 43.53125 10.953125 
Q 47.40625 15.53125 47.40625 23.390625 
Q 47.40625 31.296875 43.53125 35.828125 
Q 39.65625 40.375 33.015625 40.375 
z
M 52.59375 71.296875 
L 52.59375 62.3125 
Q 48.875 64.0625 45.09375 64.984375 
Q 41.3125 65.921875 37.59375 65.921875 
Q 27.828125 65.921875 22.671875 59.328125 
Q 17.53125 52.734375 16.796875 39.40625 
Q 19.671875 43.65625 24.015625 45.921875 
Q 28.375 48.1875 33.59375 48.1875 
Q 44.578125 48.1875 50.953125 41.515625 
Q 57.328125 34.859375 57.328125 23.390625 
Q 57.328125 12.15625 50.6875 5.359375 
Q 44.046875 -1.421875 33.015625 -1.421875 
Q 20.359375 -1.421875 13.671875 8.265625 
Q 6.984375 17.96875 6.984375 36.375 
Q 6.984375 53.65625 15.1875 63.9375 
Q 23.390625 74.21875 37.203125 74.21875 
Q 40.921875 74.21875 44.703125 73.484375 
Q 48.484375 72.75 52.59375 71.296875 
z
" id="DejaVuSans-54"/>
    </defs>
    <g style="fill:#bfbf00;" transform="translate(357.969448 94.8575)scale(0.08 -0.08)">
     <use xlink:href="#DejaVuSans-54"/>
    </g>
   </g>
   <g id="line2d_12">
    <path clip-path="url(#pb6ad15070f)" d="M 106.863171 234.473005 
L 245.727685 277.856116 
" style="fill:none;stroke:#40e0d0;stroke-linecap:square;stroke-width:2;"/>
   </g>
   <g id="line2d_13">
    <path clip-path="url(#pb6ad15070f)" d="M 245.727685 277.856116 
L 383.881593 308.220968 
" style="fill:none;stroke:#40e0d0;stroke-linecap:square;stroke-width:2;"/>
   </g>
   <g id="line2d_14">
    <path clip-path="url(#pb6ad15070f)" d="M 383.881593 308.220968 
L 522.038688 234.473005 
" style="fill:none;stroke:#40e0d0;stroke-linecap:square;stroke-width:2;"/>
   </g>
   <g id="line2d_15">
    <path clip-path="url(#pb6ad15070f)" d="M 522.038688 234.473005 
L 384.726035 157.489482 
" style="fill:none;stroke:#40e0d0;stroke-linecap:square;stroke-width:2;"/>
   </g>
   <g id="line2d_16">
    <path clip-path="url(#pb6ad15070f)" d="M 384.726035 157.489482 
L 257.192978 136.62701 
" style="fill:none;stroke:#40e0d0;stroke-linecap:square;stroke-width:2;"/>
   </g>
   <g id="line2d_17">
    <path clip-path="url(#pb6ad15070f)" d="M 257.192978 136.62701 
L 106.863171 234.473005 
" style="fill:none;stroke:#40e0d0;stroke-linecap:square;stroke-width:2;"/>
   </g>
   <g id="line2d_18">
    <path clip-path="url(#pb6ad15070f)" d="M 257.192978 136.62701 
L 245.727685 277.856116 
" style="fill:none;stroke:#40e0d0;stroke-linecap:square;stroke-width:2;"/>
   </g>
   <g id="line2d_19">
    <path clip-path="url(#pb6ad15070f)" d="M 384.726035 157.489482 
L 383.881593 308.220968 
" style="fill:none;stroke:#40e0d0;stroke-linecap:square;stroke-width:2;"/>
   </g>
   <g id="line2d_20">
    <path clip-path="url(#pb6ad15070f)" d="M 245.727685 277.856116 
L 384.726035 157.489482 
" style="fill:none;stroke:#40e0d0;stroke-linecap:square;stroke-width:2;"/>
   </g>
   <g id="line2d_21">
    <path clip-path="url(#pb6ad15070f)" d="M 383.881593 308.220968 
" style="fill:none;stroke:#ff0000;stroke-linecap:square;stroke-width:1.5;"/>
    <defs>
     <path d="M 0 -6 
L 3 -13.5 
L 0 -10.5 
L 0 -30 
L 0 -10.5 
L -3 -13.5 
L 0 -6 
z
" id="m3f99a74e08" style="stroke:#ff0000;"/>
    </defs>
    <g clip-path="url(#pb6ad15070f)">
     <use style="fill:#ff0000;stroke:#ff0000;" x="383.881593" xlink:href="#m3f99a74e08" y="308.220968"/>
    </g>
   </g>
   <g id="line2d_22">
    <path clip-path="url(#pb6ad15070f)" d="M 384.726035 157.489482 
" style="fill:none;stroke:#ff0000;stroke-linecap:square;stroke-width:1.5;"/>
    <defs>
     <path d="M -6 0 
L -13.5 -3 
L -10.5 0 
L -30 0 
L -10.5 0 
L -13.5 3 
L -6 0 
z
" id="mc4dd70e301" style="stroke:#ff0000;"/>
    </defs>
    <g clip-path="url(#pb6ad15070f)">
     <use style="fill:#ff0000;stroke:#ff0000;" x="384.726035" xlink:href="#mc4dd70e301" y="157.489482"/>
    </g>
   </g>
   <g id="text_7">
    <!-- 50.0 N -->
    <defs>
     <path d="M 31.78125 66.40625 
Q 24.171875 66.40625 20.328125 58.90625 
Q 16.5 51.421875 16.5 36.375 
Q 16.5 21.390625 20.328125 13.890625 
Q 24.171875 6.390625 31.78125 6.390625 
Q 39.453125 6.390625 43.28125 13.890625 
Q 47.125 21.390625 47.125 36.375 
Q 47.125 51.421875 43.28125 58.90625 
Q 39.453125 66.40625 31.78125 66.40625 
z
M 31.78125 74.21875 
Q 44.046875 74.21875 50.515625 64.515625 
Q 56.984375 54.828125 56.984375 36.375 
Q 56.984375 17.96875 50.515625 8.265625 
Q 44.046875 -1.421875 31.78125 -1.421875 
Q 19.53125 -1.421875 13.0625 8.265625 
Q 6.59375 17.96875 6.59375 36.375 
Q 6.59375 54.828125 13.0625 64.515625 
Q 19.53125 74.21875 31.78125 74.21875 
z
" id="DejaVuSans-48"/>
     <path d="M 10.6875 12.40625 
L 21 12.40625 
L 21 0 
L 10.6875 0 
z
" id="DejaVuSans-46"/>
     <path id="DejaVuSans-32"/>
     <path d="M 9.8125 72.90625 
L 23.09375 72.90625 
L 55.421875 11.921875 
L 55.421875 72.90625 
L 64.984375 72.90625 
L 64.984375 0 
L 51.703125 0 
L 19.390625 60.984375 
L 19.390625 0 
L 9.8125 0 
z
" id="DejaVuSans-78"/>
    </defs>
    <g style="fill:#ff0000;" transform="translate(367.419093 275.980343)scale(0.1 -0.1)">
     <use xlink:href="#DejaVuSans-53"/>
     <use x="63.623047" xlink:href="#DejaVuSans-48"/>
     <use x="127.246094" xlink:href="#DejaVuSans-46"/>
     <use x="159.033203" xlink:href="#DejaVuSans-48"/>
     <use x="222.65625" xlink:href="#DejaVuSans-32"/>
     <use x="254.443359" xlink:href="#DejaVuSans-78"/>
    </g>
   </g>
   <g id="text_8">
    <!-- 80.0 N -->
    <defs>
     <path d="M 31.78125 34.625 
Q 24.75 34.625 20.71875 30.859375 
Q 16.703125 27.09375 16.703125 20.515625 
Q 16.703125 13.921875 20.71875 10.15625 
Q 24.75 6.390625 31.78125 6.390625 
Q 38.8125 6.390625 42.859375 10.171875 
Q 46.921875 13.96875 46.921875 20.515625 
Q 46.921875 27.09375 42.890625 30.859375 
Q 38.875 34.625 31.78125 34.625 
z
M 21.921875 38.8125 
Q 15.578125 40.375 12.03125 44.71875 
Q 8.5 49.078125 8.5 55.328125 
Q 8.5 64.0625 14.71875 69.140625 
Q 20.953125 74.21875 31.78125 74.21875 
Q 42.671875 74.21875 48.875 69.140625 
Q 55.078125 64.0625 55.078125 55.328125 
Q 55.078125 49.078125 51.53125 44.71875 
Q 48 40.375 41.703125 38.8125 
Q 48.828125 37.15625 52.796875 32.3125 
Q 56.78125 27.484375 56.78125 20.515625 
Q 56.78125 9.90625 50.3125 4.234375 
Q 43.84375 -1.421875 31.78125 -1.421875 
Q 19.734375 -1.421875 13.25 4.234375 
Q 6.78125 9.90625 6.78125 20.515625 
Q 6.78125 27.484375 10.78125 32.3125 
Q 14.796875 37.15625 21.921875 38.8125 
z
M 18.3125 54.390625 
Q 18.3125 48.734375 21.84375 45.5625 
Q 25.390625 42.390625 31.78125 42.390625 
Q 38.140625 42.390625 41.71875 45.5625 
Q 45.3125 48.734375 45.3125 54.390625 
Q 45.3125 60.0625 41.71875 63.234375 
Q 38.140625 66.40625 31.78125 66.40625 
Q 25.390625 66.40625 21.84375 63.234375 
Q 18.3125 60.0625 18.3125 54.390625 
z
" id="DejaVuSans-56"/>
    </defs>
    <g style="fill:#ff0000;" transform="translate(319.801035 160.248857)scale(0.1 -0.1)">
     <use xlink:href="#DejaVuSans-56"/>
     <use x="63.623047" xlink:href="#DejaVuSans-48"/>
     <use x="127.246094" xlink:href="#DejaVuSans-46"/>
     <use x="159.033203" xlink:href="#DejaVuSans-48"/>
     <use x="222.65625" xlink:href="#DejaVuSans-32"/>
     <use x="254.443359" xlink:href="#DejaVuSans-78"/>
    </g>
   </g>
   <g id="PathCollection_2">
    <defs>
     <path d="M 0 7.071068 
C 1.875269 7.071068 3.673985 6.326016 5 5 
C 6.326016 3.673985 7.071068 1.875269 7.071068 0 
C 7.071068 -1.875269 6.326016 -3.673985 5 -5 
C 3.673985 -6.326016 1.875269 -7.071068 0 -7.071068 
C -1.875269 -7.071068 -3.673985 -6.326016 -5 -5 
C -6.326016 -3.673985 -7.071068 -1.875269 -7.071068 0 
C -7.071068 1.875269 -6.326016 3.673985 -5 5 
C -3.673985 6.326016 -1.875269 7.071068 0 7.071068 
z
" id="m18f2baf263" style="stroke:#000000;"/>
    </defs>
    <g clip-path="url(#pb6ad15070f)">
     <use style="fill:#f5f5f5;stroke:#000000;" x="106.863171" xlink:href="#m18f2baf263" y="234.473005"/>
     <use style="fill:#f5f5f5;stroke:#000000;" x="245.727685" xlink:href="#m18f2baf263" y="277.856116"/>
     <use style="fill:#f5f5f5;stroke:#000000;" x="383.881593" xlink:href="#m18f2baf263" y="308.220968"/>
     <use style="fill:#f5f5f5;stroke:#000000;" x="522.038688" xlink:href="#m18f2baf263" y="234.473005"/>
     <use style="fill:#f5f5f5;stroke:#000000;" x="257.192978" xlink:href="#m18f2baf263" y="136.62701"/>
     <use style="fill:#f5f5f5;stroke:#000000;" x="384.726035" xlink:href="#m18f2baf263" y="157.489482"/>
    </g>
   </g>
   <g id="text_9">
    <!-- 1 -->
    <g transform="translate(104.318171 236.680505)scale(0.08 -0.08)">
     <use xlink:href="#DejaVuSans-49"/>
    </g>
   </g>
   <g id="text_10">
    <!-- 2 -->
    <g transform="translate(243.182685 280.063616)scale(0.08 -0.08)">
     <use xlink:href="#DejaVuSans-50"/>
    </g>
   </g>
   <g id="text_11">
    <!-- 3 -->
    <g transform="translate(381.336593 310.428468)scale(0.08 -0.08)">
     <use xlink:href="#DejaVuSans-51"/>
    </g>
   </g>
   <g id="text_12">
    <!-- 4 -->
    <g transform="translate(519.493688 236.680505)scale(0.08 -0.08)">
     <use xlink:href="#DejaVuSans-52"/>
    </g>
   </g>
   <g id="text_13">
    <!-- 5 -->
    <g transform="translate(254.647978 138.83451)scale(0.08 -0.08)">
     <use xlink:href="#DejaVuSans-53"/>
    </g>
   </g>
   <g id="text_14">
    <!-- 6 -->
    <g transform="translate(382.181035 159.696982)scale(0.08 -0.08)">
     <use xlink:href="#DejaVuSans-54"/>
    </g>
   </g>
  </g>
 </g>
 <defs>
  <clipPath id="pb6ad15070f">
   <rect height="366.470645" width="539.728172" x="44.586844" y="17.200161"/>
  </clipPath>
 </defs>
</svg>
