<?xml version="1.0" encoding="utf-8" standalone="no"?>
<!DOCTYPE svg PUBLIC "-//W3C//DTD SVG 1.1//EN"
  "http://www.w3.org/Graphics/SVG/1.1/DTD/svg11.dtd">
<!-- Created with matplotlib (https://matplotlib.org/) -->
<svg height="349.92pt" version="1.1" viewBox="0 0 457.92 349.92" width="457.92pt" xmlns="http://www.w3.org/2000/svg" xmlns:xlink="http://www.w3.org/1999/xlink">
 <defs>
  <style type="text/css">
*{stroke-linecap:butt;stroke-linejoin:round;}
  </style>
 </defs>
 <g id="figure_1">
  <g id="patch_1">
   <path d="M 0 349.92 
L 457.92 349.92 
L 457.92 0 
L 0 0 
z
" style="fill:#ffffff;"/>
  </g>
  <g id="axes_1">
   <g id="line2d_1">
    <path clip-path="url(#pd89ea8481d)" d="M 58.375385 273.642353 
L 143.667692 273.642353 
" style="fill:none;stroke:#1e90ff;stroke-linecap:square;stroke-opacity:0.727778;stroke-width:2;"/>
   </g>
   <g id="line2d_2">
    <path clip-path="url(#pd89ea8481d)" d="M 143.667692 273.642353 
L 228.96 273.642353 
" style="fill:none;stroke:#1e90ff;stroke-linecap:square;stroke-opacity:0.727778;stroke-width:2;"/>
   </g>
   <g id="line2d_3">
    <path clip-path="url(#pd89ea8481d)" d="M 228.96 273.642353 
L 314.252308 273.642353 
" style="fill:none;stroke:#1e90ff;stroke-linecap:square;stroke-opacity:0.727778;stroke-width:2;"/>
   </g>
   <g id="line2d_4">
    <path clip-path="url(#pd89ea8481d)" d="M 314.252308 273.642353 
L 399.544615 273.642353 
" style="fill:none;stroke:#1e90ff;stroke-linecap:square;stroke-opacity:0.727778;stroke-width:2;"/>
   </g>
   <g id="line2d_5">
    <path clip-path="url(#pd89ea8481d)" d="M 399.544615 273.642353 
L 356.898462 174.96 
" style="fill:none;stroke:#dc143c;stroke-linecap:square;stroke-width:2;"/>
   </g>
   <g id="line2d_6">
    <path clip-path="url(#pd89ea8481d)" d="M 356.898462 174.96 
L 314.252308 76.277647 
" style="fill:none;stroke:#dc143c;stroke-linecap:square;stroke-opacity:0.883333;stroke-width:2;"/>
   </g>
   <g id="line2d_7">
    <path clip-path="url(#pd89ea8481d)" d="M 314.252308 76.277647 
L 143.667692 76.277647 
" style="fill:none;stroke:#dc143c;stroke-linecap:square;stroke-opacity:0.922222;stroke-width:2;"/>
   </g>
   <g id="line2d_8">
    <path clip-path="url(#pd89ea8481d)" d="M 143.667692 76.277647 
L 101.021538 174.96 
" style="fill:none;stroke:#dc143c;stroke-linecap:square;stroke-opacity:0.883333;stroke-width:2;"/>
   </g>
   <g id="line2d_9">
    <path clip-path="url(#pd89ea8481d)" d="M 101.021538 174.96 
L 58.375385 273.642353 
" style="fill:none;stroke:#dc143c;stroke-linecap:square;stroke-width:2;"/>
   </g>
   <g id="line2d_10">
    <path clip-path="url(#pd89ea8481d)" d="M 101.021538 174.96 
L 143.667692 273.642353 
" style="fill:none;stroke:#1e90ff;stroke-linecap:square;stroke-opacity:0.494444;stroke-width:2;"/>
   </g>
   <g id="line2d_11">
    <path clip-path="url(#pd89ea8481d)" d="M 143.667692 273.642353 
L 186.313846 174.96 
" style="fill:none;stroke:#1e90ff;stroke-linecap:square;stroke-opacity:0.494444;stroke-width:2;"/>
   </g>
   <g id="line2d_12">
    <path clip-path="url(#pd89ea8481d)" d="M 186.313846 174.96 
L 228.96 273.642353 
" style="fill:none;stroke:#1e90ff;stroke-linecap:square;stroke-opacity:0.338889;stroke-width:2;"/>
   </g>
   <g id="line2d_13">
    <path clip-path="url(#pd89ea8481d)" d="M 228.96 273.642353 
L 271.606154 174.96 
" style="fill:none;stroke:#1e90ff;stroke-linecap:square;stroke-opacity:0.338889;stroke-width:2;"/>
   </g>
   <g id="line2d_14">
    <path clip-path="url(#pd89ea8481d)" d="M 271.606154 174.96 
L 314.252308 273.642353 
" style="fill:none;stroke:#1e90ff;stroke-linecap:square;stroke-opacity:0.494444;stroke-width:2;"/>
   </g>
   <g id="line2d_15">
    <path clip-path="url(#pd89ea8481d)" d="M 314.252308 273.642353 
L 356.898462 174.96 
" style="fill:none;stroke:#1e90ff;stroke-linecap:square;stroke-opacity:0.494444;stroke-width:2;"/>
   </g>
   <g id="line2d_16">
    <path clip-path="url(#pd89ea8481d)" d="M 101.021538 174.96 
L 186.313846 174.96 
" style="fill:none;stroke:#dc143c;stroke-linecap:square;stroke-opacity:0.572222;stroke-width:2;"/>
   </g>
   <g id="line2d_17">
    <path clip-path="url(#pd89ea8481d)" d="M 271.606154 174.96 
L 356.898462 174.96 
" style="fill:none;stroke:#dc143c;stroke-linecap:square;stroke-opacity:0.572222;stroke-width:2;"/>
   </g>
   <g id="line2d_18">
    <path clip-path="url(#pd89ea8481d)" d="M 186.313846 174.96 
L 143.667692 76.277647 
" style="fill:none;stroke:#1e90ff;stroke-linecap:square;stroke-opacity:0.883333;stroke-width:2;"/>
   </g>
   <g id="line2d_19">
    <path clip-path="url(#pd89ea8481d)" d="M 271.606154 174.96 
L 314.252308 76.277647 
" style="fill:none;stroke:#1e90ff;stroke-linecap:square;stroke-opacity:0.883333;stroke-width:2;"/>
   </g>
   <g id="line2d_20">
    <path clip-path="url(#pd89ea8481d)" d="M 58.375385 273.642353 
" style="fill:none;stroke:#000000;stroke-linecap:square;stroke-width:1.5;"/>
    <defs>
     <path d="M -10.869565 21.73913 
L 0 5.434783 
L 10.869565 21.73913 
z
M -13.043478 21.73913 
L 13.043478 21.73913 
M -13.043478 25 
L -10.869565 21.73913 
M -10.869565 25 
L -8.695652 21.73913 
M -8.695652 25 
L -6.521739 21.73913 
M -6.521739 25 
L -4.347826 21.73913 
M -4.347826 25 
L -2.173913 21.73913 
M -2.173913 25 
L 0 21.73913 
M 0 25 
L 2.173913 21.73913 
M 2.173913 25 
L 4.347826 21.73913 
M 4.347826 25 
L 6.521739 21.73913 
M 6.521739 25 
L 8.695652 21.73913 
M 8.695652 25 
L 10.869565 21.73913 
" id="ma64aeee202" style="stroke:#000000;"/>
    </defs>
    <g clip-path="url(#pd89ea8481d)">
     <use style="fill:#b0c4de;stroke:#000000;" x="58.375385" xlink:href="#ma64aeee202" y="273.642353"/>
    </g>
   </g>
   <g id="line2d_21">
    <path clip-path="url(#pd89ea8481d)" d="M 399.544615 273.642353 
" style="fill:none;stroke:#000000;stroke-linecap:square;stroke-width:1.5;"/>
    <defs>
     <path d="M 0 24.553571 
C 2.604673 24.553571 5.103017 23.518724 6.944799 21.676942 
C 8.786581 19.835159 9.821429 17.336816 9.821429 14.732143 
C 9.821429 12.12747 8.786581 9.629126 6.944799 7.787344 
C 5.103017 5.945562 2.604673 4.910714 0 4.910714 
C -2.604673 4.910714 -5.103017 5.945562 -6.944799 7.787344 
C -8.786581 9.629126 -9.821429 12.12747 -9.821429 14.732143 
C -9.821429 17.336816 -8.786581 19.835159 -6.944799 21.676942 
C -5.103017 23.518724 -2.604673 24.553571 0 24.553571 
z
M -9.821429 24.553571 
L 9.821429 24.553571 
M -9.821429 27.5 
L -7.857143 24.553571 
M -7.857143 27.5 
L -5.892857 24.553571 
M -5.892857 27.5 
L -3.928571 24.553571 
M -3.928571 27.5 
L -1.964286 24.553571 
M -1.964286 27.5 
L 0 24.553571 
M 0 27.5 
L 1.964286 24.553571 
M 1.964286 27.5 
L 3.928571 24.553571 
M 3.928571 27.5 
L 5.892857 24.553571 
M 5.892857 27.5 
L 7.857143 24.553571 
" id="mac1296022a" style="stroke:#000000;"/>
    </defs>
    <g clip-path="url(#pd89ea8481d)">
     <use style="fill:#b0c4de;stroke:#000000;" x="399.544615" xlink:href="#mac1296022a" y="273.642353"/>
    </g>
   </g>
   <g id="line2d_22">
    <path clip-path="url(#pd89ea8481d)" d="M 143.667692 273.642353 
" style="fill:none;stroke:#ff0000;stroke-linecap:square;stroke-width:1.5;"/>
    <defs>
     <path d="M 0 -6 
L 3 -13.5 
L 0 -10.5 
L 0 -30 
L 0 -10.5 
L -3 -13.5 
L 0 -6 
z
" id="m01a09cb4e9" style="stroke:#ff0000;"/>
    </defs>
    <g clip-path="url(#pd89ea8481d)">
     <use style="fill:#ff0000;stroke:#ff0000;" x="143.667692" xlink:href="#m01a09cb4e9" y="273.642353"/>
    </g>
   </g>
   <g id="line2d_23">
    <path clip-path="url(#pd89ea8481d)" d="M 228.96 273.642353 
" style="fill:none;stroke:#ff0000;stroke-linecap:square;stroke-width:1.5;"/>
    <g clip-path="url(#pd89ea8481d)">
     <use style="fill:#ff0000;stroke:#ff0000;" x="228.96" xlink:href="#m01a09cb4e9" y="273.642353"/>
    </g>
   </g>
   <g id="line2d_24">
    <path clip-path="url(#pd89ea8481d)" d="M 314.252308 273.642353 
" style="fill:none;stroke:#ff0000;stroke-linecap:square;stroke-width:1.5;"/>
    <g clip-path="url(#pd89ea8481d)">
     <use style="fill:#ff0000;stroke:#ff0000;" x="314.252308" xlink:href="#m01a09cb4e9" y="273.642353"/>
    </g>
   </g>
   <g id="line2d_25">
    <path clip-path="url(#pd89ea8481d)" d="M 58.375385 273.642353 
" style="fill:none;stroke:#008000;stroke-linecap:square;stroke-width:1.5;"/>
    <defs>
     <path d="M 0 0 
L 24 0 
L 21 -3 
L 30 0 
L 21 3 
L 24 0 
L 0 0 
z
" id="ma9a29fa4c2" style="stroke:#008000;"/>
    </defs>
    <g clip-path="url(#pd89ea8481d)">
     <use style="fill:#008000;stroke:#008000;" x="58.375385" xlink:href="#ma9a29fa4c2" y="273.642353"/>
    </g>
   </g>
   <g id="line2d_26">
    <path clip-path="url(#pd89ea8481d)" d="M 58.375385 273.642353 
" style="fill:none;stroke:#008000;stroke-linecap:square;stroke-width:1.5;"/>
    <defs>
     <path d="M 0 0 
L 0 -24 
L -3 -21 
L 0 -30 
L 3 -21 
L 0 -24 
L 0 0 
z
" id="ma2b4244be5" style="stroke:#008000;"/>
    </defs>
    <g clip-path="url(#pd89ea8481d)">
     <use style="fill:#008000;stroke:#008000;" x="58.375385" xlink:href="#ma2b4244be5" y="273.642353"/>
    </g>
   </g>
   <g id="line2d_27">
    <path clip-path="url(#pd89ea8481d)" d="M 399.544615 273.642353 
" style="fill:none;stroke:#008000;stroke-linecap:square;stroke-width:1.5;"/>
    <g clip-path="url(#pd89ea8481d)">
     <use style="fill:#008000;stroke:#008000;" x="399.544615" xlink:href="#ma2b4244be5" y="273.642353"/>
    </g>
   </g>
   <g id="PathCollection_1">
    <defs>
     <path d="M 0 7.071068 
C 1.875269 7.071068 3.673985 6.326016 5 5 
C 6.326016 3.673985 7.071068 1.875269 7.071068 0 
C 7.071068 -1.875269 6.326016 -3.673985 5 -5 
C 3.673985 -6.326016 1.875269 -7.071068 0 -7.071068 
C -1.875269 -7.071068 -3.673985 -6.326016 -5 -5 
C -6.326016 -3.673985 -7.071068 -1.875269 -7.071068 0 
C -7.071068 1.875269 -6.326016 3.673985 -5 5 
C -3.673985 6.326016 -1.875269 7.071068 0 7.071068 
z
" id="m4b08a0f1b3" style="stroke:#000000;"/>
    </defs>
    <g clip-path="url(#pd89ea8481d)">
     <use style="fill:#f5f5f5;stroke:#000000;" x="58.375385" xlink:href="#m4b08a0f1b3" y="273.642353"/>
     <use style="fill:#f5f5f5;stroke:#000000;" x="143.667692" xlink:href="#m4b08a0f1b3" y="273.642353"/>
     <use style="fill:#f5f5f5;stroke:#000000;" x="228.96" xlink:href="#m4b08a0f1b3" y="273.642353"/>
     <use style="fill:#f5f5f5;stroke:#000000;" x="314.252308" xlink:href="#m4b08a0f1b3" y="273.642353"/>
     <use style="fill:#f5f5f5;stroke:#000000;" x="399.544615" xlink:href="#m4b08a0f1b3" y="273.642353"/>
     <use style="fill:#f5f5f5;stroke:#000000;" x="101.021538" xlink:href="#m4b08a0f1b3" y="174.96"/>
     <use style="fill:#f5f5f5;stroke:#000000;" x="143.667692" xlink:href="#m4b08a0f1b3" y="76.277647"/>
     <use style="fill:#f5f5f5;stroke:#000000;" x="186.313846" xlink:href="#m4b08a0f1b3" y="174.96"/>
     <use style="fill:#f5f5f5;stroke:#000000;" x="271.606154" xlink:href="#m4b08a0f1b3" y="174.96"/>
     <use style="fill:#f5f5f5;stroke:#000000;" x="314.252308" xlink:href="#m4b08a0f1b3" y="76.277647"/>
     <use style="fill:#f5f5f5;stroke:#000000;" x="356.898462" xlink:href="#m4b08a0f1b3" y="174.96"/>
    </g>
   </g>
   <g id="text_1">
    <!-- 1 -->
    <defs>
     <path d="M 12.40625 8.296875 
L 28.515625 8.296875 
L 28.515625 63.921875 
L 10.984375 60.40625 
L 10.984375 69.390625 
L 28.421875 72.90625 
L 38.28125 72.90625 
L 38.28125 8.296875 
L 54.390625 8.296875 
L 54.390625 0 
L 12.40625 0 
z
" id="DejaVuSans-49"/>
    </defs>
    <g transform="translate(55.830385 275.849853)scale(0.08 -0.08)">
     <use xlink:href="#DejaVuSans-49"/>
    </g>
   </g>
   <g id="text_2">
    <!-- 2 -->
    <defs>
     <path d="M 19.1875 8.296875 
L 53.609375 8.296875 
L 53.609375 0 
L 7.328125 0 
L 7.328125 8.296875 
Q 12.9375 14.109375 22.625 23.890625 
Q 32.328125 33.6875 34.8125 36.53125 
Q 39.546875 41.84375 41.421875 45.53125 
Q 43.3125 49.21875 43.3125 52.78125 
Q 43.3125 58.59375 39.234375 62.25 
Q 35.15625 65.921875 28.609375 65.921875 
Q 23.96875 65.921875 18.8125 64.3125 
Q 13.671875 62.703125 7.8125 59.421875 
L 7.8125 69.390625 
Q 13.765625 71.78125 18.9375 73 
Q 24.125 74.21875 28.421875 74.21875 
Q 39.75 74.21875 46.484375 68.546875 
Q 53.21875 62.890625 53.21875 53.421875 
Q 53.21875 48.921875 51.53125 44.890625 
Q 49.859375 40.875 45.40625 35.40625 
Q 44.1875 33.984375 37.640625 27.21875 
Q 31.109375 20.453125 19.1875 8.296875 
z
" id="DejaVuSans-50"/>
    </defs>
    <g transform="translate(141.122692 275.849853)scale(0.08 -0.08)">
     <use xlink:href="#DejaVuSans-50"/>
    </g>
   </g>
   <g id="text_3">
    <!-- 3 -->
    <defs>
     <path d="M 40.578125 39.3125 
Q 47.65625 37.796875 51.625 33 
Q 55.609375 28.21875 55.609375 21.1875 
Q 55.609375 10.40625 48.1875 4.484375 
Q 40.765625 -1.421875 27.09375 -1.421875 
Q 22.515625 -1.421875 17.65625 -0.515625 
Q 12.796875 0.390625 7.625 2.203125 
L 7.625 11.71875 
Q 11.71875 9.328125 16.59375 8.109375 
Q 21.484375 6.890625 26.8125 6.890625 
Q 36.078125 6.890625 40.9375 10.546875 
Q 45.796875 14.203125 45.796875 21.1875 
Q 45.796875 27.640625 41.28125 31.265625 
Q 36.765625 34.90625 28.71875 34.90625 
L 20.21875 34.90625 
L 20.21875 43.015625 
L 29.109375 43.015625 
Q 36.375 43.015625 40.234375 45.921875 
Q 44.09375 48.828125 44.09375 54.296875 
Q 44.09375 59.90625 40.109375 62.90625 
Q 36.140625 65.921875 28.71875 65.921875 
Q 24.65625 65.921875 20.015625 65.03125 
Q 15.375 64.15625 9.8125 62.3125 
L 9.8125 71.09375 
Q 15.4375 72.65625 20.34375 73.4375 
Q 25.25 74.21875 29.59375 74.21875 
Q 40.828125 74.21875 47.359375 69.109375 
Q 53.90625 64.015625 53.90625 55.328125 
Q 53.90625 49.265625 50.4375 45.09375 
Q 46.96875 40.921875 40.578125 39.3125 
z
" id="DejaVuSans-51"/>
    </defs>
    <g transform="translate(226.415 275.849853)scale(0.08 -0.08)">
     <use xlink:href="#DejaVuSans-51"/>
    </g>
   </g>
   <g id="text_4">
    <!-- 4 -->
    <defs>
     <path d="M 37.796875 64.3125 
L 12.890625 25.390625 
L 37.796875 25.390625 
z
M 35.203125 72.90625 
L 47.609375 72.90625 
L 47.609375 25.390625 
L 58.015625 25.390625 
L 58.015625 17.1875 
L 47.609375 17.1875 
L 47.609375 0 
L 37.796875 0 
L 37.796875 17.1875 
L 4.890625 17.1875 
L 4.890625 26.703125 
z
" id="DejaVuSans-52"/>
    </defs>
    <g transform="translate(311.707308 275.849853)scale(0.08 -0.08)">
     <use xlink:href="#DejaVuSans-52"/>
    </g>
   </g>
   <g id="text_5">
    <!-- 5 -->
    <defs>
     <path d="M 10.796875 72.90625 
L 49.515625 72.90625 
L 49.515625 64.59375 
L 19.828125 64.59375 
L 19.828125 46.734375 
Q 21.96875 47.46875 24.109375 47.828125 
Q 26.265625 48.1875 28.421875 48.1875 
Q 40.625 48.1875 47.75 41.5 
Q 54.890625 34.8125 54.890625 23.390625 
Q 54.890625 11.625 47.5625 5.09375 
Q 40.234375 -1.421875 26.90625 -1.421875 
Q 22.3125 -1.421875 17.546875 -0.640625 
Q 12.796875 0.140625 7.71875 1.703125 
L 7.71875 11.625 
Q 12.109375 9.234375 16.796875 8.0625 
Q 21.484375 6.890625 26.703125 6.890625 
Q 35.15625 6.890625 40.078125 11.328125 
Q 45.015625 15.765625 45.015625 23.390625 
Q 45.015625 31 40.078125 35.4375 
Q 35.15625 39.890625 26.703125 39.890625 
Q 22.75 39.890625 18.8125 39.015625 
Q 14.890625 38.140625 10.796875 36.28125 
z
" id="DejaVuSans-53"/>
    </defs>
    <g transform="translate(396.999615 275.849853)scale(0.08 -0.08)">
     <use xlink:href="#DejaVuSans-53"/>
    </g>
   </g>
   <g id="text_6">
    <!-- 6 -->
    <defs>
     <path d="M 33.015625 40.375 
Q 26.375 40.375 22.484375 35.828125 
Q 18.609375 31.296875 18.609375 23.390625 
Q 18.609375 15.53125 22.484375 10.953125 
Q 26.375 6.390625 33.015625 6.390625 
Q 39.65625 6.390625 43.53125 10.953125 
Q 47.40625 15.53125 47.40625 23.390625 
Q 47.40625 31.296875 43.53125 35.828125 
Q 39.65625 40.375 33.015625 40.375 
z
M 52.59375 71.296875 
L 52.59375 62.3125 
Q 48.875 64.0625 45.09375 64.984375 
Q 41.3125 65.921875 37.59375 65.921875 
Q 27.828125 65.921875 22.671875 59.328125 
Q 17.53125 52.734375 16.796875 39.40625 
Q 19.671875 43.65625 24.015625 45.921875 
Q 28.375 48.1875 33.59375 48.1875 
Q 44.578125 48.1875 50.953125 41.515625 
Q 57.328125 34.859375 57.328125 23.390625 
Q 57.328125 12.15625 50.6875 5.359375 
Q 44.046875 -1.421875 33.015625 -1.421875 
Q 20.359375 -1.421875 13.671875 8.265625 
Q 6.984375 17.96875 6.984375 36.375 
Q 6.984375 53.65625 15.1875 63.9375 
Q 23.390625 74.21875 37.203125 74.21875 
Q 40.921875 74.21875 44.703125 73.484375 
Q 48.484375 72.75 52.59375 71.296875 
z
" id="DejaVuSans-54"/>
    </defs>
    <g transform="translate(98.476538 177.1675)scale(0.08 -0.08)">
     <use xlink:href="#DejaVuSans-54"/>
    </g>
   </g>
   <g id="text_7">
    <!-- 7 -->
    <defs>
     <path d="M 8.203125 72.90625 
L 55.078125 72.90625 
L 55.078125 68.703125 
L 28.609375 0 
L 18.3125 0 
L 43.21875 64.59375 
L 8.203125 64.59375 
z
" id="DejaVuSans-55"/>
    </defs>
    <g transform="translate(141.122692 78.485147)scale(0.08 -0.08)">
     <use xlink:href="#DejaVuSans-55"/>
    </g>
   </g>
   <g id="text_8">
    <!-- 8 -->
    <defs>
     <path d="M 31.78125 34.625 
Q 24.75 34.625 20.71875 30.859375 
Q 16.703125 27.09375 16.703125 20.515625 
Q 16.703125 13.921875 20.71875 10.15625 
Q 24.75 6.390625 31.78125 6.390625 
Q 38.8125 6.390625 42.859375 10.171875 
Q 46.921875 13.96875 46.921875 20.515625 
Q 46.921875 27.09375 42.890625 30.859375 
Q 38.875 34.625 31.78125 34.625 
z
M 21.921875 38.8125 
Q 15.578125 40.375 12.03125 44.71875 
Q 8.5 49.078125 8.5 55.328125 
Q 8.5 64.0625 14.71875 69.140625 
Q 20.953125 74.21875 31.78125 74.21875 
Q 42.671875 74.21875 48.875 69.140625 
Q 55.078125 64.0625 55.078125 55.328125 
Q 55.078125 49.078125 51.53125 44.71875 
Q 48 40.375 41.703125 38.8125 
Q 48.828125 37.15625 52.796875 32.3125 
Q 56.78125 27.484375 56.78125 20.515625 
Q 56.78125 9.90625 50.3125 4.234375 
Q 43.84375 -1.421875 31.78125 -1.421875 
Q 19.734375 -1.421875 13.25 4.234375 
Q 6.78125 9.90625 6.78125 20.515625 
Q 6.78125 27.484375 10.78125 32.3125 
Q 14.796875 37.15625 21.921875 38.8125 
z
M 18.3125 54.390625 
Q 18.3125 48.734375 21.84375 45.5625 
Q 25.390625 42.390625 31.78125 42.390625 
Q 38.140625 42.390625 41.71875 45.5625 
Q 45.3125 48.734375 45.3125 54.390625 
Q 45.3125 60.0625 41.71875 63.234375 
Q 38.140625 66.40625 31.78125 66.40625 
Q 25.390625 66.40625 21.84375 63.234375 
Q 18.3125 60.0625 18.3125 54.390625 
z
" id="DejaVuSans-56"/>
    </defs>
    <g transform="translate(183.768846 177.1675)scale(0.08 -0.08)">
     <use xlink:href="#DejaVuSans-56"/>
    </g>
   </g>
   <g id="text_9">
    <!-- 9 -->
    <defs>
     <path d="M 10.984375 1.515625 
L 10.984375 10.5 
Q 14.703125 8.734375 18.5 7.8125 
Q 22.3125 6.890625 25.984375 6.890625 
Q 35.75 6.890625 40.890625 13.453125 
Q 46.046875 20.015625 46.78125 33.40625 
Q 43.953125 29.203125 39.59375 26.953125 
Q 35.25 24.703125 29.984375 24.703125 
Q 19.046875 24.703125 12.671875 31.3125 
Q 6.296875 37.9375 6.296875 49.421875 
Q 6.296875 60.640625 12.9375 67.421875 
Q 19.578125 74.21875 30.609375 74.21875 
Q 43.265625 74.21875 49.921875 64.515625 
Q 56.59375 54.828125 56.59375 36.375 
Q 56.59375 19.140625 48.40625 8.859375 
Q 40.234375 -1.421875 26.421875 -1.421875 
Q 22.703125 -1.421875 18.890625 -0.6875 
Q 15.09375 0.046875 10.984375 1.515625 
z
M 30.609375 32.421875 
Q 37.25 32.421875 41.125 36.953125 
Q 45.015625 41.5 45.015625 49.421875 
Q 45.015625 57.28125 41.125 61.84375 
Q 37.25 66.40625 30.609375 66.40625 
Q 23.96875 66.40625 20.09375 61.84375 
Q 16.21875 57.28125 16.21875 49.421875 
Q 16.21875 41.5 20.09375 36.953125 
Q 23.96875 32.421875 30.609375 32.421875 
z
" id="DejaVuSans-57"/>
    </defs>
    <g transform="translate(269.061154 177.1675)scale(0.08 -0.08)">
     <use xlink:href="#DejaVuSans-57"/>
    </g>
   </g>
   <g id="text_10">
    <!-- 10 -->
    <defs>
     <path d="M 31.78125 66.40625 
Q 24.171875 66.40625 20.328125 58.90625 
Q 16.5 51.421875 16.5 36.375 
Q 16.5 21.390625 20.328125 13.890625 
Q 24.171875 6.390625 31.78125 6.390625 
Q 39.453125 6.390625 43.28125 13.890625 
Q 47.125 21.390625 47.125 36.375 
Q 47.125 51.421875 43.28125 58.90625 
Q 39.453125 66.40625 31.78125 66.40625 
z
M 31.78125 74.21875 
Q 44.046875 74.21875 50.515625 64.515625 
Q 56.984375 54.828125 56.984375 36.375 
Q 56.984375 17.96875 50.515625 8.265625 
Q 44.046875 -1.421875 31.78125 -1.421875 
Q 19.53125 -1.421875 13.0625 8.265625 
Q 6.59375 17.96875 6.59375 36.375 
Q 6.59375 54.828125 13.0625 64.515625 
Q 19.53125 74.21875 31.78125 74.21875 
z
" id="DejaVuSans-48"/>
    </defs>
    <g transform="translate(309.162308 78.485147)scale(0.08 -0.08)">
     <use xlink:href="#DejaVuSans-49"/>
     <use x="63.623047" xlink:href="#DejaVuSans-48"/>
    </g>
   </g>
   <g id="text_11">
    <!-- 11 -->
    <g transform="translate(351.808462 177.1675)scale(0.08 -0.08)">
     <use xlink:href="#DejaVuSans-49"/>
     <use x="63.623047" xlink:href="#DejaVuSans-49"/>
    </g>
   </g>
   <g id="text_12">
    <!-- 4.0 kN -->
    <defs>
     <path d="M 10.6875 12.40625 
L 21 12.40625 
L 21 0 
L 10.6875 0 
z
" id="DejaVuSans-46"/>
     <path id="DejaVuSans-32"/>
     <path d="M 9.078125 75.984375 
L 18.109375 75.984375 
L 18.109375 31.109375 
L 44.921875 54.6875 
L 56.390625 54.6875 
L 27.390625 29.109375 
L 57.625 0 
L 45.90625 0 
L 18.109375 26.703125 
L 18.109375 0 
L 9.078125 0 
z
" id="DejaVuSans-107"/>
     <path d="M 9.8125 72.90625 
L 23.09375 72.90625 
L 55.421875 11.921875 
L 55.421875 72.90625 
L 64.984375 72.90625 
L 64.984375 0 
L 51.703125 0 
L 19.390625 60.984375 
L 19.390625 0 
L 9.8125 0 
z
" id="DejaVuSans-78"/>
    </defs>
    <g style="fill:#ff0000;" transform="translate(127.49113 241.401728)scale(0.1 -0.1)">
     <use xlink:href="#DejaVuSans-52"/>
     <use x="63.623047" xlink:href="#DejaVuSans-46"/>
     <use x="95.410156" xlink:href="#DejaVuSans-48"/>
     <use x="159.033203" xlink:href="#DejaVuSans-32"/>
     <use x="190.820312" xlink:href="#DejaVuSans-107"/>
     <use x="248.730469" xlink:href="#DejaVuSans-78"/>
    </g>
   </g>
   <g id="text_13">
    <!-- 2.0 kN -->
    <g style="fill:#ff0000;" transform="translate(212.783438 241.401728)scale(0.1 -0.1)">
     <use xlink:href="#DejaVuSans-50"/>
     <use x="63.623047" xlink:href="#DejaVuSans-46"/>
     <use x="95.410156" xlink:href="#DejaVuSans-48"/>
     <use x="159.033203" xlink:href="#DejaVuSans-32"/>
     <use x="190.820312" xlink:href="#DejaVuSans-107"/>
     <use x="248.730469" xlink:href="#DejaVuSans-78"/>
    </g>
   </g>
   <g id="text_14">
    <!-- 4.0 kN -->
    <g style="fill:#ff0000;" transform="translate(298.075745 241.401728)scale(0.1 -0.1)">
     <use xlink:href="#DejaVuSans-52"/>
     <use x="63.623047" xlink:href="#DejaVuSans-46"/>
     <use x="95.410156" xlink:href="#DejaVuSans-48"/>
     <use x="159.033203" xlink:href="#DejaVuSans-32"/>
     <use x="190.820312" xlink:href="#DejaVuSans-107"/>
     <use x="248.730469" xlink:href="#DejaVuSans-78"/>
    </g>
   </g>
   <g id="text_15">
    <!-- -0.0 kN -->
    <defs>
     <path d="M 4.890625 31.390625 
L 31.203125 31.390625 
L 31.203125 23.390625 
L 4.890625 23.390625 
z
" id="DejaVuSans-45"/>
    </defs>
    <g style="fill:#008000;" transform="translate(90.375385 276.401728)scale(0.1 -0.1)">
     <use xlink:href="#DejaVuSans-45"/>
     <use x="36.083984" xlink:href="#DejaVuSans-48"/>
     <use x="99.707031" xlink:href="#DejaVuSans-46"/>
     <use x="131.494141" xlink:href="#DejaVuSans-48"/>
     <use x="195.117188" xlink:href="#DejaVuSans-32"/>
     <use x="226.904297" xlink:href="#DejaVuSans-107"/>
     <use x="284.814453" xlink:href="#DejaVuSans-78"/>
    </g>
   </g>
   <g id="text_16">
    <!-- 5.0 kN -->
    <g style="fill:#008000;" transform="translate(42.198822 241.401728)scale(0.1 -0.1)">
     <use xlink:href="#DejaVuSans-53"/>
     <use x="63.623047" xlink:href="#DejaVuSans-46"/>
     <use x="95.410156" xlink:href="#DejaVuSans-48"/>
     <use x="159.033203" xlink:href="#DejaVuSans-32"/>
     <use x="190.820312" xlink:href="#DejaVuSans-107"/>
     <use x="248.730469" xlink:href="#DejaVuSans-78"/>
    </g>
   </g>
   <g id="text_17">
    <!-- 5.0 kN -->
    <g style="fill:#008000;" transform="translate(383.368053 241.401728)scale(0.1 -0.1)">
     <use xlink:href="#DejaVuSans-53"/>
     <use x="63.623047" xlink:href="#DejaVuSans-46"/>
     <use x="95.410156" xlink:href="#DejaVuSans-48"/>
     <use x="159.033203" xlink:href="#DejaVuSans-32"/>
     <use x="190.820312" xlink:href="#DejaVuSans-107"/>
     <use x="248.730469" xlink:href="#DejaVuSans-78"/>
    </g>
   </g>
   <g id="text_18">
    <!-- 1 -->
    <g transform="translate(97.840288 276.401728)scale(0.1 -0.1)">
     <use xlink:href="#DejaVuSans-49"/>
    </g>
   </g>
   <g id="text_19">
    <!-- 2 -->
    <g transform="translate(183.132596 276.401728)scale(0.1 -0.1)">
     <use xlink:href="#DejaVuSans-50"/>
    </g>
   </g>
   <g id="text_20">
    <!-- 3 -->
    <g transform="translate(268.424904 276.401728)scale(0.1 -0.1)">
     <use xlink:href="#DejaVuSans-51"/>
    </g>
   </g>
   <g id="text_21">
    <!-- 4 -->
    <g transform="translate(353.717212 276.401728)scale(0.1 -0.1)">
     <use xlink:href="#DejaVuSans-52"/>
    </g>
   </g>
   <g id="text_22">
    <!-- 5 -->
    <g transform="translate(375.040288 227.060551)scale(0.1 -0.1)">
     <use xlink:href="#DejaVuSans-53"/>
    </g>
   </g>
   <g id="text_23">
    <!-- 6 -->
    <g transform="translate(332.394135 128.378199)scale(0.1 -0.1)">
     <use xlink:href="#DejaVuSans-54"/>
    </g>
   </g>
   <g id="text_24">
    <!-- 7 -->
    <g transform="translate(225.77875 79.037022)scale(0.1 -0.1)">
     <use xlink:href="#DejaVuSans-55"/>
    </g>
   </g>
   <g id="text_25">
    <!-- 8 -->
    <g transform="translate(119.163365 128.378199)scale(0.1 -0.1)">
     <use xlink:href="#DejaVuSans-56"/>
    </g>
   </g>
   <g id="text_26">
    <!-- 9 -->
    <g transform="translate(76.517212 227.060551)scale(0.1 -0.1)">
     <use xlink:href="#DejaVuSans-57"/>
    </g>
   </g>
   <g id="text_27">
    <!-- 10 -->
    <g transform="translate(115.982115 227.060551)scale(0.1 -0.1)">
     <use xlink:href="#DejaVuSans-49"/>
     <use x="63.623047" xlink:href="#DejaVuSans-48"/>
    </g>
   </g>
   <g id="text_28">
    <!-- 11 -->
    <g transform="translate(158.628269 227.060551)scale(0.1 -0.1)">
     <use xlink:href="#DejaVuSans-49"/>
     <use x="63.623047" xlink:href="#DejaVuSans-49"/>
    </g>
   </g>
   <g id="text_29">
    <!-- 12 -->
    <g transform="translate(201.274423 227.060551)scale(0.1 -0.1)">
     <use xlink:href="#DejaVuSans-49"/>
     <use x="63.623047" xlink:href="#DejaVuSans-50"/>
    </g>
   </g>
   <g id="text_30">
    <!-- 13 -->
    <g transform="translate(243.920577 227.060551)scale(0.1 -0.1)">
     <use xlink:href="#DejaVuSans-49"/>
     <use x="63.623047" xlink:href="#DejaVuSans-51"/>
    </g>
   </g>
   <g id="text_31">
    <!-- 14 -->
    <g transform="translate(286.566731 227.060551)scale(0.1 -0.1)">
     <use xlink:href="#DejaVuSans-49"/>
     <use x="63.623047" xlink:href="#DejaVuSans-52"/>
    </g>
   </g>
   <g id="text_32">
    <!-- 15 -->
    <g transform="translate(329.212885 227.060551)scale(0.1 -0.1)">
     <use xlink:href="#DejaVuSans-49"/>
     <use x="63.623047" xlink:href="#DejaVuSans-53"/>
    </g>
   </g>
   <g id="text_33">
    <!-- 16 -->
    <g transform="translate(137.305192 177.719375)scale(0.1 -0.1)">
     <use xlink:href="#DejaVuSans-49"/>
     <use x="63.623047" xlink:href="#DejaVuSans-54"/>
    </g>
   </g>
   <g id="text_34">
    <!-- 17 -->
    <g transform="translate(307.889808 177.719375)scale(0.1 -0.1)">
     <use xlink:href="#DejaVuSans-49"/>
     <use x="63.623047" xlink:href="#DejaVuSans-55"/>
    </g>
   </g>
   <g id="text_35">
    <!-- 18 -->
    <g transform="translate(158.628269 128.378199)scale(0.1 -0.1)">
     <use xlink:href="#DejaVuSans-49"/>
     <use x="63.623047" xlink:href="#DejaVuSans-56"/>
    </g>
   </g>
   <g id="text_36">
    <!-- 19 -->
    <g transform="translate(286.566731 128.378199)scale(0.1 -0.1)">
     <use xlink:href="#DejaVuSans-49"/>
     <use x="63.623047" xlink:href="#DejaVuSans-57"/>
    </g>
   </g>
  </g>
 </g>
 <defs>
  <clipPath id="pd89ea8481d">
   <rect height="335.52" width="443.52" x="7.2" y="7.2"/>
  </clipPath>
 </defs>
</svg>
